# xmcd
#
# Track frame offsets: 
#        150
#        13084
#        30201
#        39097
#        57437
#        70168
#        78065
#        94781
#        107466
#        118873
#        132685
#        154897
#
# Disc length: 2215 seconds
#
# Revision: 0
# Processed by: cddbd v1.4PL0 Copyright (c) Steve Scherf et al.
# Submitted via: ExactAudioCopy v0.95a3
#
DISCID=9008a50c
DTITLE=Midnight Cowboys - www.midnightcowboys.dk
DYEAR=2003
DGENRE=Country
TTITLE0=The fightin' side of me
TTITLE1=Designated drinker
TTITLE2=From a jack to a king
TTITLE3=Today I started loving you again
TTITLE4=Have a chat
TTITLE5=Cheyenne
TTITLE6=If I said you had a beautyful body
TTITLE7=King of the road
TTITLE8=It's alright to be a redneck
TTITLE9=Everybody's talking at me
TTITLE10=City of New Orleans
TTITLE11=Oh lonesome me
EXTD=
EXTT0=
EXTT1=
EXTT2=
EXTT3=
EXTT4=
EXTT5=
EXTT6=
EXTT7=
EXTT8=
EXTT9=
EXTT10=
EXTT11=
PLAYORDER=
